<?xml version="1.0" encoding="utf-8"?>
<!-- Generator: Adobe Illustrator 16.0.0, SVG Export Plug-In . SVG Version: 6.00 Build 0)  -->
<!DOCTYPE svg PUBLIC "-//W3C//DTD SVG 1.1//EN" "http://www.w3.org/Graphics/SVG/1.1/DTD/svg11.dtd">
<svg version="1.1" id="Layer_1" xmlns="http://www.w3.org/2000/svg" xmlns:xlink="http://www.w3.org/1999/xlink" x="0px" y="0px"
	 width="100px" height="100px" viewBox="0 0 100 100" enable-background="new 0 0 100 100" xml:space="preserve">
<rect fill="#E03A45" width="100" height="100"/>
<g>
	<g>
		<polygon fill="#FFFFFF" points="27,37.9 20.1,37.9 20.1,19.9 38.3,19.9 38.3,26.7 27,26.7 		"/>
	</g>
	<g>
		<path fill="#FFFFFF" d="M24,37.6"/>
	</g>
	<g>
		<polygon fill="#FFFFFF" points="38,80.4 20.1,80.4 20.1,61.8 27,61.8 27,73.5 38,73.5 		"/>
	</g>
	<g>
		<path fill="#FFFFFF" d="M38.5,76.2"/>
	</g>
	<g>
		<polygon fill="#FFFFFF" points="80.1,80.4 61.5,80.4 61.5,73.5 73.3,73.5 73.3,61.8 80.1,61.8 		"/>
	</g>
	<g>
		<polygon fill="#FFFFFF" points="80.1,37.9 73.3,37.9 73.3,26.7 61.8,26.7 61.8,19.9 80.1,19.9 		"/>
	</g>
	<g>
		<rect x="13.2" y="47" fill="#FFFFFF" width="20.7" height="5.9"/>
	</g>
	<g>
		<rect x="66.2" y="47" fill="#FFFFFF" width="20.7" height="5.9"/>
	</g>
	<g>
		<rect x="47.1" y="66.2" fill="#FFFFFF" width="5.9" height="20.7"/>
	</g>
	<g>
		<rect x="47.1" y="13.2" fill="#FFFFFF" width="5.9" height="20.7"/>
	</g>
	<g>
		<path fill="#2A2A2A" d="M55.2,50c0,2.9-2.4,5.2-5.2,5.2c-2.8,0-5.2-2.4-5.2-5.2c0-2.8,2.4-5.2,5.2-5.2C53,44.8,55.2,47.2,55.2,50z
			"/>
	</g>
</g>
</svg>
