<?xml version="1.0" encoding="utf-8"?>
<!-- Generator: Adobe Illustrator 16.0.0, SVG Export Plug-In . SVG Version: 6.00 Build 0)  -->
<!DOCTYPE svg PUBLIC "-//W3C//DTD SVG 1.1//EN" "http://www.w3.org/Graphics/SVG/1.1/DTD/svg11.dtd">
<svg version="1.1" id="Layer_1" xmlns="http://www.w3.org/2000/svg" xmlns:xlink="http://www.w3.org/1999/xlink" x="0px" y="0px"
	 width="100px" height="100px" viewBox="0 0 100 100" enable-background="new 0 0 100 100" xml:space="preserve">
<rect fill="#E03A45" width="99.9" height="99.9"/>
<path fill="#2A2A2A" d="M21.9,100.5l0.3-9.6c0-15.3,12.5-28,27.8-28c7.3,0,13.9,2.7,18.8,7.3c2.1-2.4,3.8-4.2,5.8-6.9
	c-3.4-3-7.5-5.6-11.7-7.2c4.4-4,7.3-10,7.3-16.4c0-11.1-9.1-20.2-20.2-20.2c-11.1,0-20.2,9.1-20.2,20.2c0,6.4,2.9,12.4,7.3,16.4
	c-13.9,5.2-23.6,19.1-23.6,34.7l-0.1,9.7H21.9z M49.9,28.3c6.2,0,11.2,5,11.2,11.2c0,6.6-5.4,12.9-11.2,12.9
	c-5.8,0-11.2-6.2-11.2-12.9C38.7,33.4,43.7,28.3,49.9,28.3z"/>
<polygon fill="#E03A45" points="88.6,42.2 44.7,86.1 44.7,100 100.2,100 "/>
<polygon fill="#FFFFFF" points="95.5,72.5 83.5,72.5 83.5,58.5 74.5,58.5 74.5,72.5 61.5,72.5 61.5,80.5 74.5,80.5 74.5,94.5 
	83.5,94.5 83.5,80.5 95.5,80.5 "/>
</svg>
