<?xml version="1.0" encoding="utf-8"?>
<!-- Generator: Adobe Illustrator 16.0.0, SVG Export Plug-In . SVG Version: 6.00 Build 0)  -->
<!DOCTYPE svg PUBLIC "-//W3C//DTD SVG 1.1//EN" "http://www.w3.org/Graphics/SVG/1.1/DTD/svg11.dtd">
<svg version="1.1" id="Layer_1" xmlns="http://www.w3.org/2000/svg" xmlns:xlink="http://www.w3.org/1999/xlink" x="0px" y="0px"
	 width="100px" height="100px" viewBox="0 0 100 100" enable-background="new 0 0 100 100" xml:space="preserve">
<g>
	<rect fill="#E03A45" width="100" height="100"/>
</g>
<g>
	<rect x="42.5" y="61.9" fill="#E03A45" width="18.8" height="31.8"/>
</g>
<g>
	
		<rect x="20.9" y="43.2" transform="matrix(0.8595 0.5111 -0.5111 0.8595 30.4933 -10.5552)" fill="#E03A45" width="27" height="14.1"/>
</g>
<g>
	
		<rect x="62.9" y="36.7" transform="matrix(0.5111 0.8595 -0.8595 0.5111 77.3499 -35.5805)" fill="#E03A45" width="14.1" height="27"/>
</g>
<g>
	<polygon fill="#2A2A2A" points="100,6.2 96.3,0 90.8,0 100,15.3 	"/>
</g>
<g>
	<polygon fill="#2A2A2A" points="100,21.8 86.9,0 81.4,0 100,31 	"/>
</g>
<g>
	<polygon fill="#2A2A2A" points="100,37.5 77.5,0 72,0 100,46.6 	"/>
</g>
<g>
	<g>
		<g>
			<path fill="#2A2A2A" d="M20,50.4c0,14.4,10.2,26.5,23.7,29.4v4.3l6.3-3.7l0,0l0,0l0.6-0.3l6.9-4l-6.9-4l-6.9-4v3.4
				C34.7,68.8,28,60.3,28,50.4c0-9.1,5.6-17,13.5-20.3l-7.3-5.2C25.7,30.1,20,39.6,20,50.4z"/>
		</g>
	</g>
	<g>
		<g>
			<path fill="#2A2A2A" d="M80.2,50c0-14.4-10.2-26.5-23.7-29.4v-4.3L50.1,20l0,0l0,0l-0.6,0.3l-6.9,4l6.9,4l6.9,4v-3.4
				C65.5,31.6,72.2,40,72.2,50c0,9.1-5.6,17-13.5,20.3l7.3,5.2C74.5,70.2,80.2,60.8,80.2,50z"/>
		</g>
	</g>
</g>
<g>
	<g>
		<rect x="42.9" y="41.5" fill="#FFFFFF" width="4" height="17.3"/>
	</g>
	<g>
		<rect x="48.3" y="41.5" fill="#FFFFFF" width="4" height="17.3"/>
	</g>
	<g>
		<rect x="53.6" y="41.5" fill="#FFFFFF" width="4" height="17.3"/>
	</g>
</g>
<g>
	<polygon fill="#FFFFFF" points="84,78.1 86.4,82.8 91.6,83.6 87.8,87.2 88.7,92.4 84,90 79.4,92.4 80.3,87.2 76.5,83.6 81.7,82.8 	
		"/>
</g>
</svg>
