<?xml version="1.0" encoding="utf-8"?>
<!-- Generator: Adobe Illustrator 16.0.0, SVG Export Plug-In . SVG Version: 6.00 Build 0)  -->
<!DOCTYPE svg PUBLIC "-//W3C//DTD SVG 1.1//EN" "http://www.w3.org/Graphics/SVG/1.1/DTD/svg11.dtd">
<svg version="1.1" id="Layer_1" xmlns="http://www.w3.org/2000/svg" xmlns:xlink="http://www.w3.org/1999/xlink" x="0px" y="0px"
	 width="100px" height="100px" viewBox="0 0 100 100" enable-background="new 0 0 100 100" xml:space="preserve">
<rect fill="#E03A45" width="100" height="100"/>
<path fill="#E03A45" d="M55.7,38.8c0,2.7-2.2,5.3-4.8,5.3c-2.7,0-4.8-2.6-4.8-5.3c0-2.7,2.2-4.8,4.8-4.8
	C53.5,34,55.7,36.2,55.7,38.8z"/>
<path fill="#2A2A2A" d="M64.7,43.7c0,8.2-6.6,16.2-14.8,16.2c-8.2,0-14.8-8.1-14.8-16.2c0-8.2,6.6-14.8,14.8-14.8
	C58.1,29,64.7,35.6,64.7,43.7z"/>
<path fill="#2A2A2A" d="M80.3,87.2C80.3,70.5,66.8,57,50.1,57c-16.7,0-30.3,13.5-30.3,30.3L19.5,100h61.3L80.3,87.2z"/>
<g>
	<g>
		<polygon fill="#FFFFFF" points="33.2,35.5 28.1,35.5 28.1,22.1 41.7,22.1 41.7,27.2 33.2,27.2 		"/>
	</g>
	<g>
		<path fill="#FFFFFF" d="M30.7,35.5"/>
	</g>
	<g>
		<polygon fill="#FFFFFF" points="41.5,67.1 28.1,67.1 28.1,53.3 33.2,53.3 33.2,62 41.5,62 		"/>
	</g>
	<g>
		<path fill="#FFFFFF" d="M41.5,64.2"/>
	</g>
	<g>
		<polygon fill="#FFFFFF" points="72.8,67.1 58.9,67.1 58.9,62 67.7,62 67.7,53.3 72.8,53.3 		"/>
	</g>
	<g>
		<polygon fill="#FFFFFF" points="72.8,35.5 67.7,35.5 67.7,27.2 59.2,27.2 59.2,22.1 72.8,22.1 		"/>
	</g>
	<g>
		<rect x="22.7" y="42.5" fill="#FFFFFF" width="15.4" height="4.4"/>
	</g>
	<g>
		<rect x="62.1" y="42.5" fill="#FFFFFF" width="15.4" height="4.4"/>
	</g>
	<g>
		<rect x="47.7" y="56.8" fill="#FFFFFF" width="4.4" height="15.4"/>
	</g>
	<g>
		<rect x="47.7" y="17.4" fill="#FFFFFF" width="4.4" height="15.4"/>
	</g>
	<g>
		<circle fill="#FFFFFF" cx="49.9" cy="44.7" r="2.6"/>
	</g>
</g>
<path fill="#FFFFFF" d="M90.1,3.1c-1.5,0-2.8,0.8-3.8,1.6c-1-0.8-2.4-1.6-3.8-1.6c-3.4,0-5.6,2.1-5.6,5.5c0,2.8,2.5,5,2.5,5v0L85,19
	c0.3,0.3,0.8,0.5,1.2,0.5c0.5,0,0.9-0.2,1.2-0.5l5.7-5.5c0.6-0.5,2.5-2.5,2.5-5C95.7,5.2,93.5,3.1,90.1,3.1z M82.4,5.4
	c0.9,0,2,0.6,3,1.6l0.8,0.8l0.8-0.8c1.1-1,2.2-1.6,3-1.6c2.1,0,3.2,1.1,3.2,3.1c0,0.1,0,0.1,0,0.2l-13,2.3c-0.5-0.6-1.1-1.5-1.1-2.5
	C79.2,6.5,80.3,5.4,82.4,5.4z"/>
</svg>
