<?xml version="1.0" encoding="utf-8"?>
<!-- Generator: Adobe Illustrator 16.0.0, SVG Export Plug-In . SVG Version: 6.00 Build 0)  -->
<!DOCTYPE svg PUBLIC "-//W3C//DTD SVG 1.1//EN" "http://www.w3.org/Graphics/SVG/1.1/DTD/svg11.dtd">
<svg version="1.1" id="Layer_1" xmlns="http://www.w3.org/2000/svg" xmlns:xlink="http://www.w3.org/1999/xlink" x="0px" y="0px"
	 width="100px" height="100px" viewBox="0 0 100 100" enable-background="new 0 0 100 100" xml:space="preserve">
<rect fill="#E03A45" width="100" height="100"/>
<g>
	<polygon fill="#FFFFFF" points="11.1,69.3 29,79.2 29,30.3 11.1,21 	"/>
	<path fill="#292A2A" d="M30.1,81l-20-11.1V19.2l20,10.5V81z M12.2,68.7L28,77.4V30.9l-15.8-8.2V68.7z"/>
	<g>
		<polygon fill="#FFFFFF" points="31.1,79.2 49,69.3 49,21 31.1,30.3 		"/>
		<path fill="#292A2A" d="M30.1,81V29.7l20-10.5v50.7L30.1,81z M32.2,30.9v46.4L48,68.7V22.7L32.2,30.9z"/>
	</g>
	<g>
		<polygon fill="#FFFFFF" points="51.1,69.3 69,79.2 69,30.3 51.1,21 		"/>
		<path fill="#292A2A" d="M70.1,81L50,69.9V19.2l20,10.5V81z M52.2,68.7l15.8,8.7V30.9l-15.8-8.2V68.7z"/>
	</g>
	<g>
		<polygon fill="#FFFFFF" points="71.1,30.3 71.1,79.2 89,69.3 89,21 		"/>
		<path fill="#292A2A" d="M70,81V29.7l20-10.5v50.7L70,81z M72.2,30.9v46.4l15.8-8.7V22.7L72.2,30.9z"/>
	</g>
	<g>
		<circle fill="#E03A45" cx="18.2" cy="50.7" r="2.1"/>
	</g>
	<g>
		<rect x="26.6" y="51.5" fill="#FFFFFF" width="7.2" height="7.1"/>
	</g>
	<g>
		<rect x="66.5" y="51.5" fill="#FFFFFF" width="7.2" height="7.1"/>
	</g>
	<g>
		<rect x="46.1" y="39" fill="#FFFFFF" width="7.2" height="7.1"/>
	</g>
	<g>
		<path fill="#E03A45" d="M71.2,57.4c-0.3,0-0.5-0.2-0.5-0.5c0-0.3,0.2-0.5,0.5-0.5c0.8,0,1.4-0.1,2-0.2c0.3-0.1,0.6,0.1,0.6,0.4
			c0.1,0.3-0.1,0.6-0.4,0.6C72.8,57.4,72,57.4,71.2,57.4C71.2,57.4,71.2,57.4,71.2,57.4z M69.1,57.3C69.1,57.3,69,57.3,69.1,57.3
			c-0.8-0.1-1.5-0.2-2.2-0.4c-0.3-0.1-0.5-0.4-0.4-0.6c0.1-0.3,0.4-0.5,0.6-0.4c0.7,0.2,1.4,0.3,2,0.4c0.3,0,0.5,0.3,0.5,0.6
			C69.6,57.1,69.3,57.3,69.1,57.3z M75.3,56.5c-0.2,0-0.4-0.1-0.5-0.3c-0.1-0.3-0.1-0.6,0.2-0.7c0.6-0.3,1.2-0.7,1.8-1.1
			c0.2-0.2,0.6-0.1,0.7,0.2c0.2,0.2,0.1,0.6-0.2,0.7c-0.6,0.4-1.2,0.8-1.8,1.1C75.5,56.4,75.4,56.5,75.3,56.5z M64.9,56.3
			c-0.1,0-0.1,0-0.2,0c-0.3-0.1-0.7-0.3-1-0.4c-0.4-0.2-0.7-0.4-1-0.8c-0.2-0.2-0.2-0.6,0-0.8c0.2-0.2,0.6-0.2,0.8,0
			c0.2,0.3,0.5,0.4,0.8,0.6c0.3,0.1,0.6,0.3,0.9,0.4c0.3,0.1,0.4,0.4,0.3,0.7C65.3,56.2,65.1,56.3,64.9,56.3z M31.3,56
			c-0.3,0-0.5-0.2-0.5-0.5c0-0.3,0.2-0.5,0.5-0.5c0.7,0,1.3-0.1,2-0.2c0.3-0.1,0.6,0.1,0.6,0.4c0.1,0.3-0.1,0.6-0.4,0.6
			C32.8,55.9,32,56,31.3,56C31.3,56,31.3,56,31.3,56z M29.2,55.8c0,0-0.1,0-0.1,0c-0.7-0.1-1.4-0.3-2.1-0.6
			c-0.3-0.1-0.4-0.4-0.3-0.7c0.1-0.3,0.4-0.4,0.7-0.3c0.7,0.3,1.3,0.4,2,0.6c0.3,0.1,0.5,0.3,0.4,0.6C29.7,55.7,29.4,55.8,29.2,55.8
			z M35.5,55.2c-0.2,0-0.4-0.1-0.5-0.3c-0.1-0.3,0-0.6,0.3-0.7c0.5-0.2,1.1-0.4,1.6-0.7l0.2-0.1c0.3-0.1,0.6,0,0.7,0.2
			c0.1,0.3,0,0.6-0.2,0.7l-0.3,0.1c-0.6,0.3-1.2,0.5-1.8,0.8C35.6,55.2,35.5,55.2,35.5,55.2z M25.2,54.3c-0.1,0-0.2,0-0.2-0.1
			l-0.2-0.1c-0.6-0.3-1.2-0.6-1.6-0.7c-0.3-0.1-0.4-0.4-0.4-0.7s0.4-0.4,0.7-0.4c0.5,0.2,1.1,0.5,1.8,0.8l0.2,0.1
			c0.3,0.1,0.4,0.5,0.2,0.7C25.6,54.2,25.4,54.3,25.2,54.3z M78.9,54.2c-0.2,0-0.3-0.1-0.4-0.2c-0.2-0.2-0.1-0.6,0.1-0.7
			c0.7-0.4,1.1-0.7,1.1-0.8c0.1-0.1,0.3-0.1,0.5-0.1c0.2,0.1,0.3,0.2,0.3,0.3c0.1,0.4,0.1,0.4-1.4,1.4C79.1,54.1,79,54.2,78.9,54.2z
			 M61.9,53.5c-0.2,0-0.4-0.1-0.5-0.3c-0.2-0.4-0.5-0.9-0.7-1.4l-0.3-0.5c-0.1-0.3,0-0.6,0.2-0.7c0.3-0.1,0.6,0,0.7,0.2l0.3,0.5
			c0.2,0.5,0.5,0.9,0.7,1.3c0.1,0.3,0.1,0.6-0.2,0.7C62.1,53.5,62,53.5,61.9,53.5z M39.2,53.1c-0.1,0-0.3-0.1-0.4-0.2
			c-0.2-0.2-0.2-0.6,0.1-0.8c0.5-0.4,0.9-0.9,1.4-1.5c0.2-0.2,0.5-0.3,0.8-0.1c0.2,0.2,0.3,0.5,0.1,0.8c-0.5,0.6-1,1.1-1.5,1.6
			C39.4,53.1,39.3,53.1,39.2,53.1z M21.2,52.9c-0.1,0-0.1,0-0.2,0c-1.3-0.5-2-1-2-1c-0.2-0.2-0.3-0.5-0.1-0.7
			c0.2-0.2,0.5-0.3,0.7-0.1c0,0,0.6,0.4,1.8,0.9c0.3,0.1,0.4,0.4,0.3,0.7C21.6,52.7,21.4,52.9,21.2,52.9z M41.9,49.9
			c-0.1,0-0.2,0-0.3-0.1c-0.2-0.2-0.3-0.5-0.1-0.7c0.3-0.4,0.6-0.9,0.9-1.3l0.3-0.5c0.2-0.2,0.5-0.3,0.7-0.2
			c0.2,0.2,0.3,0.5,0.2,0.7l-0.3,0.5c-0.3,0.4-0.6,0.9-0.9,1.3C42.3,49.8,42.1,49.9,41.9,49.9z M59.9,49.7c-0.2,0-0.4-0.1-0.5-0.3
			c-0.4-0.6-0.8-1.2-1.2-1.7c-0.2-0.2-0.1-0.6,0.1-0.7c0.2-0.2,0.6-0.1,0.7,0.1c0.4,0.5,0.8,1.1,1.2,1.8c0.2,0.3,0.1,0.6-0.2,0.7
			C60.1,49.7,60,49.7,59.9,49.7z M57.2,46.4c-0.1,0-0.3,0-0.4-0.1c-0.5-0.5-1-0.9-1.6-1.3c-0.2-0.2-0.3-0.5-0.2-0.7
			c0.2-0.2,0.5-0.3,0.7-0.2c0.6,0.4,1.2,0.9,1.8,1.4c0.2,0.2,0.2,0.5,0,0.8C57.5,46.3,57.4,46.4,57.2,46.4z M44.3,46.3
			c-0.1,0-0.2,0-0.3-0.1c-0.2-0.2-0.3-0.5-0.1-0.7c0.5-0.7,1-1.2,1.5-1.7c0.2-0.2,0.6-0.2,0.8,0c0.2,0.2,0.2,0.6,0,0.8
			c-0.4,0.4-0.9,0.9-1.3,1.5C44.6,46.2,44.4,46.3,44.3,46.3z M53.7,44.1c-0.1,0-0.1,0-0.2,0c-0.5-0.2-1-0.4-1.5-0.5
			c-0.2,0-0.3-0.1-0.4-0.1c-0.3-0.1-0.5-0.4-0.4-0.6c0.1-0.3,0.4-0.5,0.6-0.4c0.2,0,0.3,0.1,0.5,0.1c0.6,0.2,1.1,0.4,1.6,0.6
			c0.3,0.1,0.4,0.4,0.3,0.7C54.1,44,53.9,44.1,53.7,44.1z M47.5,43.5c-0.2,0-0.4-0.1-0.5-0.3c-0.1-0.3,0-0.6,0.3-0.7
			c0.7-0.3,1.5-0.4,2.3-0.5c0.3,0,0.5,0.2,0.5,0.5c0,0.3-0.2,0.5-0.5,0.5c-0.7,0-1.3,0.1-1.9,0.4C47.6,43.5,47.5,43.5,47.5,43.5z"/>
	</g>
	<g>
		<g>
			<path fill="#E03A45" d="M87.1,49.4l-5.2,5.2l-1,1c-0.1,0.1-0.3,0.2-0.5,0.2c-0.2,0-0.4-0.1-0.5-0.2l-1-1L76.4,52
				c-0.1-0.1-0.2-0.3-0.2-0.5c0-0.2,0.1-0.4,0.2-0.5l1-1c0.1-0.1,0.3-0.2,0.5-0.2c0.2,0,0.4,0.1,0.5,0.2l2.1,2.1l4.7-4.7
				c0.1-0.1,0.3-0.2,0.5-0.2c0.2,0,0.4,0.1,0.5,0.2l1,1c0.1,0.1,0.2,0.3,0.2,0.5C87.3,49.1,87.2,49.3,87.1,49.4z"/>
		</g>
	</g>
</g>
</svg>
