<?xml version="1.0" encoding="utf-8"?>
<!-- Generator: Adobe Illustrator 16.0.0, SVG Export Plug-In . SVG Version: 6.00 Build 0)  -->
<!DOCTYPE svg PUBLIC "-//W3C//DTD SVG 1.1//EN" "http://www.w3.org/Graphics/SVG/1.1/DTD/svg11.dtd">
<svg version="1.1" id="Layer_1" xmlns="http://www.w3.org/2000/svg" xmlns:xlink="http://www.w3.org/1999/xlink" x="0px" y="0px"
	 width="100px" height="100px" viewBox="0 0 100 100" enable-background="new 0 0 100 100" xml:space="preserve">
<rect fill="#E03A45" width="99.9" height="99.9"/>
<path fill="#2A2A2A" d="M62.5,60.6c2.6,0.9,4.9,2,7.2,3.3h25.6l-0.2-7.8c0-8.7-6-16-14.1-17.9c2.8-1.8,4.7-5.2,4.7-8.6c0-5-4-9-9-9
	s-9,4-9,9c0,3.4,1.9,6.8,4.7,8.6c-1.4,0.3-2.7,0.8-4,1.5c0.6,1.8,1,3.8,1,5.8C69.3,51.1,66.7,56.8,62.5,60.6z"/>
<path fill="#2A2A2A" d="M31.5,45.5c0-1.9,0.3-3.7,0.8-5.4c-1.5-0.8-3-1.5-4.7-1.9c2.8-1.8,4.7-5.2,4.7-8.6c0-5-4-9-9-9c-5,0-9,4-9,9
	c0,3.4,1.9,6.8,4.7,8.6c-8.1,1.9-14.1,9.2-14.1,17.9l-0.2,7.8h26.5c2.2-1.4,4.6-2.5,7.2-3.3C34.1,56.8,31.5,51.1,31.5,45.5z"/>
<path fill="#2A2A2A" d="M84.4,100l-0.2-5.8c0-16-11.1-29.4-26-33c5.1-3.3,8.6-9.5,8.6-15.8c0-9.1-7.4-16.5-16.5-16.5
	s-16.5,7.4-16.5,16.5c0,6.3,3.5,12.5,8.6,15.8c-14.9,3.6-26,17-26,33l-0.2,5.8H84.4z"/>
</svg>
