<?xml version="1.0" encoding="utf-8"?>
<!-- Generator: Adobe Illustrator 16.0.0, SVG Export Plug-In . SVG Version: 6.00 Build 0)  -->
<!DOCTYPE svg PUBLIC "-//W3C//DTD SVG 1.1//EN" "http://www.w3.org/Graphics/SVG/1.1/DTD/svg11.dtd">
<svg version="1.1" id="Layer_1" xmlns="http://www.w3.org/2000/svg" xmlns:xlink="http://www.w3.org/1999/xlink" x="0px" y="0px"
	 width="100px" height="100px" viewBox="0 0 100 100" enable-background="new 0 0 100 100" xml:space="preserve">
<rect x="0.3" opacity="0.3" fill="#E03A45" width="99.8" height="99.8"/>
<rect fill="#E03A45" width="100" height="100"/>
<path fill="#2A2A2A" d="M100,84.8c-2-9-9-16.2-18-18.3c3.7-2.4,6.2-6.8,6.2-11.3c0-6.5-5.3-11.8-11.8-11.8s-11.8,5.3-11.8,11.8
	c0,4.5,2.5,8.9,6.2,11.3C60,69,52.1,78.6,52.1,90l-0.3,10H100V84.8z"/>
<path fill="#2A2A2A" d="M0,86.1V100h48.4l-0.3-10c0-11.4-7.9-21-18.6-23.6c3.7-2.4,6.1-6.8,6.1-11.3c0-6.5-5.3-11.8-11.8-11.8
	s-11.8,5.3-11.8,11.8c0,4.5,2.5,8.9,6.1,11.3C8.8,68.7,1.6,76.4,0,86.1z"/>
<path fill="#FFFFFF" d="M56.2,77.2c3.7-2.4,6.1-6.8,6.1-11.3c0-6.5-5.3-11.8-11.8-11.8c-6.5,0-11.8,5.3-11.8,11.8
	c0,4.5,2.5,8.9,6.1,11.3C34.5,79.7,26.7,88.9,26.3,100h48.4C74.4,88.9,66.6,79.7,56.2,77.2z"/>
</svg>
