<?xml version="1.0" encoding="utf-8"?>
<!-- Generator: Adobe Illustrator 16.0.0, SVG Export Plug-In . SVG Version: 6.00 Build 0)  -->
<!DOCTYPE svg PUBLIC "-//W3C//DTD SVG 1.1//EN" "http://www.w3.org/Graphics/SVG/1.1/DTD/svg11.dtd">
<svg version="1.1" id="Layer_1" xmlns="http://www.w3.org/2000/svg" xmlns:xlink="http://www.w3.org/1999/xlink" x="0px" y="0px"
	 width="100px" height="100px" viewBox="0 0 100 100" enable-background="new 0 0 100 100" xml:space="preserve">
<g>
	<g>
		<rect fill="#E03A45" width="100" height="100"/>
	</g>
	<g>
		<g>
			<path fill="#2A2A2A" d="M87.4,82.5L87.4,82.5L87.4,82.5h-71l-4.1-7L47.8,14h8.1l35.5,61.5L87.4,82.5z M24.5,73.1h54.7L51.9,25.7
				L24.5,73.1z"/>
		</g>
	</g>
	<g>
		<rect x="42.5" y="61.9" fill="#E03A45" width="18.8" height="31.8"/>
	</g>
	<g>
		
			<rect x="20.9" y="43.2" transform="matrix(0.8595 0.5111 -0.5111 0.8595 30.4933 -10.5552)" fill="#E03A45" width="27" height="14.1"/>
	</g>
	<g>
		
			<rect x="62.9" y="36.7" transform="matrix(0.5111 0.8595 -0.8595 0.5111 77.3499 -35.5805)" fill="#E03A45" width="14.1" height="27"/>
	</g>
	<g>
		<g>
			<rect x="40.8" y="55" fill="#FFFFFF" width="20.4" height="4.7"/>
		</g>
		<g>
			<rect x="48.6" y="47.1" fill="#FFFFFF" width="4.7" height="20.4"/>
		</g>
	</g>
	<g>
		<circle fill="#FFFFFF" cx="32.9" cy="48.7" r="3.1"/>
	</g>
	<g>
		<polygon fill="#2A2A2A" points="100,6.2 96.3,0 90.8,0 100,15.3 		"/>
	</g>
	<g>
		<polygon fill="#2A2A2A" points="100,21.8 86.9,0 81.4,0 100,31 		"/>
	</g>
	<g>
		<polygon fill="#2A2A2A" points="100,37.5 77.5,0 72,0 100,46.6 		"/>
	</g>
</g>
</svg>
