<?xml version="1.0" encoding="utf-8"?>
<!-- Generator: Adobe Illustrator 16.0.0, SVG Export Plug-In . SVG Version: 6.00 Build 0)  -->
<!DOCTYPE svg PUBLIC "-//W3C//DTD SVG 1.1//EN" "http://www.w3.org/Graphics/SVG/1.1/DTD/svg11.dtd">
<svg version="1.1" id="Layer_1" xmlns="http://www.w3.org/2000/svg" xmlns:xlink="http://www.w3.org/1999/xlink" x="0px" y="0px"
	 width="100px" height="100px" viewBox="0 0 100 100" enable-background="new 0 0 100 100" xml:space="preserve">
<g>
	<rect fill="#E03A45" width="100" height="100"/>
</g>
<g>
	<g>
		<g>
			<path fill="#2A2A2A" d="M53.1,46.4l-19.4-7.2c-8,1.8-15.4,8.3-18.8,17.6C9.9,70.4,15,84.8,26.3,89c11.3,4.2,24.6-3.4,29.6-17
				C59.4,62.6,58,52.9,53.1,46.4z"/>
		</g>
	</g>
	<g>
		<g>
			<path fill="#2A2A2A" d="M65.2,34.9l-3.3-1.2l-23.3-8.6l-3.4,9.3l18.1,6.7l1.1-3l5.1,1.9c0,0,1.7,11.6,11.5,13.1
				C71.2,53,63.6,43.2,65.2,34.9z"/>
		</g>
	</g>
	<g>
		<g>
			
				<rect x="15" y="52.5" transform="matrix(0.9382 0.346 -0.346 0.9382 21.0163 -10.296)" fill="#E03A45" width="48.7" height="2.4"/>
		</g>
	</g>
	<g>
		<g>
			
				<rect x="11" y="63.3" transform="matrix(0.9382 0.346 -0.346 0.9382 24.5214 -8.2423)" fill="#E03A45" width="48.7" height="2.4"/>
		</g>
	</g>
	<g>
		<g>
			
				<rect x="6.4" y="75.8" transform="matrix(0.9382 0.346 -0.346 0.9382 28.5372 -5.8915)" fill="#E03A45" width="48.7" height="2.4"/>
		</g>
	</g>
	<g>
		<g>
			<path fill="#E03A45" d="M20.5,90.3C18.4,68.6,35.2,40,35.9,38.7L38,40c-0.2,0.3-17.1,29.2-15,50.1L20.5,90.3z"/>
		</g>
	</g>
	<g>
		<g>
			<path fill="#E03A45" d="M29.9,93.7L28.2,92c15.1-14.5,21-47.5,21.1-47.8l2.4,0.4C51.4,46,45.5,78.6,29.9,93.7z"/>
		</g>
	</g>
</g>
<path fill="#2A2A2A" d="M84.6,32.4l-7.8-11.2c0.1-0.2,0.1-0.3,0.1-0.5c1.9-1.3,3.1-3.4,3.1-5.9c0-3.9-3.2-7-7-7c-3.9,0-7,3.2-7,7
	s3.2,7,7,7c0.5,0,1-0.1,1.5-0.2c0.3,0.2,0.6,0.4,1,0.4c0,0,0,0,0.1,0l7.8,11.2L84.6,32.4z M67.6,14.8c0-3,2.5-5.5,5.5-5.5
	s5.5,2.5,5.5,5.5c0,1.9-0.9,3.5-2.3,4.5c-0.2-0.1-0.5-0.2-0.7-0.2c-0.7,0-1.2,0.5-1.4,1.1c-0.3,0.1-0.7,0.1-1,0.1
	C70,20.3,67.6,17.9,67.6,14.8z"/>
</svg>
