<?xml version="1.0" encoding="utf-8"?>
<!-- Generator: Adobe Illustrator 16.0.0, SVG Export Plug-In . SVG Version: 6.00 Build 0)  -->
<!DOCTYPE svg PUBLIC "-//W3C//DTD SVG 1.1//EN" "http://www.w3.org/Graphics/SVG/1.1/DTD/svg11.dtd">
<svg version="1.1" id="Layer_1" xmlns="http://www.w3.org/2000/svg" xmlns:xlink="http://www.w3.org/1999/xlink" x="0px" y="0px"
	 width="100px" height="100px" viewBox="0 0 100 100" enable-background="new 0 0 100 100" xml:space="preserve">
<rect fill="#E03A45" width="99.9" height="99.9"/>
<path fill="#2A2A2A" d="M9.2,80.9c-0.1,0.5,0.3,1,0.8,1.1l18.1,4.1c0.6,0.1,1.1-0.2,1.3-0.7l0.6-2.5c0.1-0.5-0.3-1-0.8-1.1l-1.6-0.4
	l8.8-27.7c0,0,14.6,1.1,17.1-1.6c2.5-2.7,5.4-9.5,5.4-10L77,42.2c0,0,0.9-0.9,1-1.8h15.9v-6.3h2.2v-8.7h-1.3v-0.7h-2v-1.3
	c0-0.7-0.6-1.3-1.3-1.3h-5.4c-0.7,0-1.3,0.6-1.3,1.3v1.3H55.2v0.7h-10v-0.7H28.4v-1.3c0-0.7-0.8-1.3-1.7-1.3h-1
	c0-0.7-0.7-1.3-1.5-1.3h-3.2c-0.8,0-1.5,0.6-1.5,1.3v0.1c-0.7,0.2-1.2,0.7-1.2,1.3v1.3v0.7c0,0-1.8,8.9-3.9,11.4
	c-2.1,2.5-5.2,1.9-6.4,2.1c0,0,6.8,5,7.5,7.6c0.7,2.6-9.4,29-11.5,31.7l5.4,1.5L9.2,80.9z M39.9,44.7c0-0.2,0-0.5,0.1-0.7
	c0,0.1,0.1,0.2,0.1,0.2c3,6.6,7.5,5.1,6.4,4.9c-1.1-0.2-2.1-1.7-2.2-3.4c-0.1-1.7-0.1-4.3-0.1-4.4c1.9-0.4,4.3-0.5,6.8-0.1
	c5.9,0.9,3.3,7.1,1.9,9.3c-1.5,2.1-7,1.9-10.2,1.1C39.6,50.9,39.9,44.7,39.9,44.7z"/>
</svg>
