<?xml version="1.0" encoding="utf-8"?>
<!-- Generator: Adobe Illustrator 16.0.0, SVG Export Plug-In . SVG Version: 6.00 Build 0)  -->
<!DOCTYPE svg PUBLIC "-//W3C//DTD SVG 1.1//EN" "http://www.w3.org/Graphics/SVG/1.1/DTD/svg11.dtd">
<svg version="1.1" id="Layer_1" xmlns="http://www.w3.org/2000/svg" xmlns:xlink="http://www.w3.org/1999/xlink" x="0px" y="0px"
	 width="100px" height="100px" viewBox="0 0 100 100" enable-background="new 0 0 100 100" xml:space="preserve">
<rect fill="#E03A45" width="100" height="100"/>
<g>
	<path fill="#2A2A2A" d="M50.2,62.1c-10.8,0-20.3-10.2-20.3-21.8C29.9,29.1,39,20,50.2,20c11.2,0,20.3,9.1,20.3,20.3
		C70.4,51.9,61,62.1,50.2,62.1z M50.2,28.9c-6.2,0-11.3,5.1-11.3,11.3c0,6.6,5.5,12.9,11.3,12.9c5.8,0,11.3-6.3,11.3-12.9
		C61.5,34,56.4,28.9,50.2,28.9z"/>
</g>
<path fill="#2A2A2A" d="M22,100l0.3-8.7c0-15.4,12.5-27.9,27.9-27.9c15.4,0,27.9,12.5,27.9,28l0.3,8.6h8.9L87,91.3
	C87,71,70.5,54.4,50.2,54.4S13.3,71,13.3,91.1l-0.3,8.9H22z"/>
<polygon fill="#E03A45" points="92.2,60.9 62.5,90.6 62.5,100 100,100 "/>
<polygon fill="#FFFFFF" points="86,77.2 88.4,82.1 93.9,82.9 89.9,86.8 90.9,92.2 86,89.6 81.1,92.2 82.1,86.8 78.1,82.9 83.6,82.1 
	"/>
</svg>
