<?xml version="1.0" encoding="utf-8"?>
<!-- Generator: Adobe Illustrator 16.0.0, SVG Export Plug-In . SVG Version: 6.00 Build 0)  -->
<!DOCTYPE svg PUBLIC "-//W3C//DTD SVG 1.1//EN" "http://www.w3.org/Graphics/SVG/1.1/DTD/svg11.dtd">
<svg version="1.1" id="Layer_1" xmlns="http://www.w3.org/2000/svg" xmlns:xlink="http://www.w3.org/1999/xlink" x="0px" y="0px"
	 width="100px" height="100px" viewBox="0 0 100 100" enable-background="new 0 0 100 100" xml:space="preserve">
<rect fill="#E03A45" width="100" height="100"/>
<path fill="#2A2A2A" d="M87,91.3c0-15.7-9.9-29.3-23.9-34.5c4.4-4.1,7.3-10.1,7.4-16.5c0-11.2-9.1-20.3-20.3-20.3
	s-20.3,9.1-20.3,20.3c0,6.4,2.9,12.4,7.3,16.5C23.3,62,13.3,75.5,13.3,91.1L13,100h9l0.3-8.7c0-15.4,12.5-27.9,27.9-27.9
	c15.4,0,27.9,12.5,27.9,28l0.3,8.6h8.9L87,91.3z M50.2,28.9c6.2,0,11.3,5.1,11.3,11.3c0,6.6-5.5,12.9-11.3,12.9
	c-5.8,0-11.3-6.3-11.3-12.9C38.9,34,44,28.9,50.2,28.9z"/>
</svg>
