<?xml version="1.0" encoding="utf-8"?>
<!-- Generator: Adobe Illustrator 16.0.0, SVG Export Plug-In . SVG Version: 6.00 Build 0)  -->
<!DOCTYPE svg PUBLIC "-//W3C//DTD SVG 1.1//EN" "http://www.w3.org/Graphics/SVG/1.1/DTD/svg11.dtd">
<svg version="1.1" id="Layer_1" xmlns="http://www.w3.org/2000/svg" xmlns:xlink="http://www.w3.org/1999/xlink" x="0px" y="0px"
	 width="100px" height="100px" viewBox="0 0 100 100" enable-background="new 0 0 100 100" xml:space="preserve">
<rect fill="#E03A45" width="100" height="100"/>
<path fill="#2A2A2A" d="M93.5,65.6l2.4-0.7c-0.9-1.2-5.4-12.9-5.1-14.1c0.3-1.1,3.3-3.4,3.3-3.4c-0.5-0.1-1.9,0.1-2.8-0.9
	c-0.9-1.1-1.7-5.1-1.7-5.1v-0.3v-0.6c0-0.3-0.2-0.5-0.5-0.6v0c0-0.3-0.3-0.6-0.7-0.6h-1.4c-0.4,0-0.7,0.3-0.7,0.6h-0.4
	c-0.4,0-0.7,0.3-0.7,0.6v0.6h-7.4v0.3h-4.5v-0.3H60.1v-0.6c0-0.3-0.3-0.6-0.6-0.6h-2.4c-0.3,0-0.6,0.3-0.6,0.6v0.6h-0.9v0.3H55v3.9
	h1v2.8h7c0,0.4,0.4,0.8,0.4,0.8l8.1,0.1c0,0.2,1.3,3.3,2.4,4.5c1.1,1.2,7.6,0.7,7.6,0.7l3.9,12.3l-0.7,0.2c-0.3,0.1-0.4,0.3-0.4,0.5
	l0.3,1.1c0.1,0.2,0.3,0.4,0.6,0.3l8-1.8c0.3-0.1,0.4-0.3,0.4-0.5L93.5,65.6z M78.7,53.2c-1.4,0.3-3.9,0.4-4.5-0.5
	c-0.6-0.9-1.8-3.7,0.8-4.1c1.1-0.2,2.2-0.1,3,0c0,0,0,1.2,0,1.9c0,0.7-0.5,1.4-1,1.5c-0.5,0.1,1.5,0.7,2.8-2.2c0,0,0-0.1,0-0.1
	c0,0.1,0.1,0.2,0,0.3C79.9,50.1,80.1,52.8,78.7,53.2z"/>
<path fill="#2A2A2A" d="M50.8,48.9c0,9.1-7.4,18.2-16.5,18.2c-9.1,0-16.5-9-16.5-18.2s7.4-16.5,16.5-16.5
	C43.4,32.4,50.8,39.8,50.8,48.9z"/>
<path fill="#E03A45" d="M34.8,43.5c0,3-2.4,5.9-5.4,5.9c-3,0-5.4-3-5.4-5.9s2.4-5.4,5.4-5.4C32.4,38.1,34.8,40.6,34.8,43.5z"/>
<g>
	<linearGradient id="SVGID_1_" gradientUnits="userSpaceOnUse" x1="24.7393" y1="43.6084" x2="54.9961" y2="43.6084">
		<stop  offset="0" style="stop-color:#FFFFFF"/>
		<stop  offset="1" style="stop-color:#FFFFFF;stop-opacity:0"/>
	</linearGradient>
	<rect x="24.7" y="42" fill="url(#SVGID_1_)" width="30.3" height="3.1"/>
</g>
<path fill="#2A2A2A" d="M68.2,100l-0.1-2.4c0-18.7-15.2-33.9-33.9-33.9S0.4,78.9,0.4,97.6L0.4,100H68.2z"/>
</svg>
