<?xml version="1.0" encoding="utf-8"?>
<!-- Generator: Adobe Illustrator 16.0.0, SVG Export Plug-In . SVG Version: 6.00 Build 0)  -->
<!DOCTYPE svg PUBLIC "-//W3C//DTD SVG 1.1//EN" "http://www.w3.org/Graphics/SVG/1.1/DTD/svg11.dtd">
<svg version="1.1" id="Layer_1" xmlns="http://www.w3.org/2000/svg" xmlns:xlink="http://www.w3.org/1999/xlink" x="0px" y="0px"
	 width="100px" height="100px" viewBox="0 0 100 100" enable-background="new 0 0 100 100" xml:space="preserve">
<rect opacity="0.3" fill="#E03A45" width="99.9" height="99.9"/>
<g>
	<polygon fill="#FFFFFF" points="1.5,35.5 19.2,35.5 29.2,46.1 12,46.1 	"/>
	<polygon fill="#FFFFFF" points="20.3,49.1 32.9,49.1 42.9,59.8 30.8,59.8 	"/>
	<polygon fill="#FFFFFF" points="79.6,49.1 67,49.1 57,59.8 69.1,59.8 	"/>
	<polygon fill="#FFFFFF" points="97.8,35.5 80.1,35.5 70.1,46.1 87.3,46.1 	"/>
	
		<rect x="44.9" y="30.3" transform="matrix(0.7072 0.707 -0.707 0.7072 39.7498 -25.048)" fill="#FFFFFF" width="10.4" height="10.4"/>
	<polygon fill="#FFFFFF" points="39.8,72.9 50.1,62.6 60.4,72.9 	"/>
	<polygon fill="#E03A45" points="61.8,35.5 50.1,47.8 38.5,35.5 23.8,35.5 50.1,62.6 76.4,35.5 	"/>
</g>
</svg>
