<?xml version="1.0" encoding="utf-8"?>
<!-- Generator: Adobe Illustrator 16.0.0, SVG Export Plug-In . SVG Version: 6.00 Build 0)  -->
<!DOCTYPE svg PUBLIC "-//W3C//DTD SVG 1.1//EN" "http://www.w3.org/Graphics/SVG/1.1/DTD/svg11.dtd">
<svg version="1.1" id="Layer_1" xmlns="http://www.w3.org/2000/svg" xmlns:xlink="http://www.w3.org/1999/xlink" x="0px" y="0px"
	 width="100px" height="100px" viewBox="0 0 100 100" enable-background="new 0 0 100 100" xml:space="preserve">
<rect fill="#E03A45" width="100" height="100"/>
<path fill="#2A2A2A" d="M65.6,43.9c0,8.1-6.6,16.2-14.7,16.2c-8.1,0-14.7-8.1-14.7-16.2s6.6-14.7,14.7-14.7
	C59,29.2,65.6,35.8,65.6,43.9z"/>
<path fill="#2A2A2A" d="M81,87.3c0-16.7-13.5-30.2-30.2-30.2c-16.7,0-30.1,13.5-30.1,30.2L20.3,100h61.1L81,87.3z"/>
<g>
	<path fill="#FFFFFF" d="M17.8,14.6c0.9,1.1,1.9,2.2,2.9,3.2c1.1,1.2,2.3,2.3,3.5,3.4c-1.1,0.4-2.1,0.8-3.2,1.2l-3.5,1.3l2.8,2.1
		c1.9,1.4,3.8,2.7,5.8,3.9c1,0.6,2,1.2,3.1,1.8c1,0.6,2.1,1.1,3.2,1.6c-0.7-1-1.5-1.9-2.2-2.8c-0.8-0.9-1.6-1.8-2.4-2.6
		c-0.8-0.8-1.6-1.6-2.4-2.4c0,0,0,0,0.1,0c1.1-0.3,2.2-0.7,3.3-1.1l3.5-1.2l-2.9-2.3c-2.2-1.8-4.5-3.5-6.9-5.1
		c-1.2-0.8-2.4-1.6-3.7-2.3c-0.6-0.4-1.2-0.7-1.9-1.1c-0.6-0.3-1.3-0.7-2-1c0.4,0.6,0.9,1.2,1.3,1.8C16.9,13.5,17.4,14,17.8,14.6z"
		/>
	<path fill="#FFFFFF" d="M25.7,37.2c-0.9,0-1.7,0.1-2.5,0.2c-0.1,0-0.1,0-0.1,0c0.4-0.8,0.7-1.6,1.1-2.5l1-2.3L22.7,33
		c-1,0.2-2,0.4-3.1,0.6c-1,0.2-2,0.5-3,0.7c-0.5,0.1-1,0.3-1.5,0.4c-0.5,0.1-1,0.3-1.5,0.4c-1,0.3-2,0.7-3,1.1
		c1.1,0.1,2.1,0.1,3.2,0.2c0.5,0,1,0,1.6,0c0.5,0,1,0,1.6-0.1c1-0.1,2.1-0.1,3.1-0.2c0.2,0,0.4-0.1,0.7-0.1c-0.3,0.8-0.7,1.6-1,2.4
		l-0.9,2.3l2.3-0.5c0.8-0.2,1.7-0.4,2.5-0.6c0.8-0.2,1.6-0.4,2.5-0.7c0.8-0.3,1.6-0.5,2.4-0.8c0.8-0.3,1.6-0.6,2.4-1
		C30.1,37,29.3,37,28.4,37C27.5,37.1,26.6,37.1,25.7,37.2z"/>
</g>
<path fill="#E03A45" d="M55.7,38.8c0,2.7-2.2,5.3-4.8,5.3c-2.7,0-4.8-2.6-4.8-5.3c0-2.7,2.2-4.8,4.8-4.8
	C53.5,34,55.7,36.2,55.7,38.8z"/>
<g>
	
		<linearGradient id="SVGID_1_" gradientUnits="userSpaceOnUse" x1="294.2002" y1="-307.8999" x2="337.249" y2="-307.8999" gradientTransform="matrix(1 0 0 -1 -247.5 -269)">
		<stop  offset="0" style="stop-color:#FFFFFF"/>
		<stop  offset="1" style="stop-color:#FFFFFF;stop-opacity:0"/>
	</linearGradient>
	<rect x="46.7" y="37.5" fill="url(#SVGID_1_)" width="43" height="2.8"/>
</g>
</svg>
