<?xml version="1.0" encoding="utf-8"?>
<!-- Generator: Adobe Illustrator 16.0.0, SVG Export Plug-In . SVG Version: 6.00 Build 0)  -->
<!DOCTYPE svg PUBLIC "-//W3C//DTD SVG 1.1//EN" "http://www.w3.org/Graphics/SVG/1.1/DTD/svg11.dtd">
<svg version="1.1" id="Layer_1" xmlns="http://www.w3.org/2000/svg" xmlns:xlink="http://www.w3.org/1999/xlink" x="0px" y="0px"
	 width="100px" height="100px" viewBox="0 0 100 100" enable-background="new 0 0 100 100" xml:space="preserve">
<g>
	<rect fill="#E03A45" width="100" height="100"/>
</g>
<g>
	<g>
		<path fill="#2A2A2A" d="M63.2,27.8H36.6c-8.8,5.7-14.8,16.8-14.8,29.6C21.8,76,34.4,91,49.9,91S78,76,78,57.4
			C78,44.6,72,33.5,63.2,27.8z"/>
	</g>
	<g>
		<path fill="#2A2A2A" d="M72.7,8.6h-4.5H36.4v12.7h24.8v-4.1h7c0,0,7.2,13.2,19.7,10.6C87.9,27.8,74.5,19.3,72.7,8.6z"/>
	</g>
	<g>
		<rect x="18.7" y="41.2" fill="#E03A45" width="62.5" height="3.1"/>
	</g>
	<g>
		<rect x="18.7" y="56.1" fill="#E03A45" width="62.5" height="3.1"/>
	</g>
	<g>
		<rect x="18.7" y="73" fill="#E03A45" width="62.5" height="3.1"/>
	</g>
	<g>
		<path fill="#E03A45" d="M43.5,95.2C31.3,70,38.7,28.1,39.1,26.3l3.1,0.6c-0.1,0.4-7.6,42.8,4.2,67L43.5,95.2z"/>
	</g>
	<g>
		<path fill="#E03A45" d="M56.3,95.2l-2.8-1.4c11.7-24.2,4.2-66.6,4.2-67l3.1-0.6C61,28.1,68.5,70,56.3,95.2z"/>
	</g>
</g>
</svg>
