<?xml version="1.0" encoding="utf-8"?>
<!-- Generator: Adobe Illustrator 16.0.0, SVG Export Plug-In . SVG Version: 6.00 Build 0)  -->
<!DOCTYPE svg PUBLIC "-//W3C//DTD SVG 1.1//EN" "http://www.w3.org/Graphics/SVG/1.1/DTD/svg11.dtd">
<svg version="1.1" id="Layer_1" xmlns="http://www.w3.org/2000/svg" xmlns:xlink="http://www.w3.org/1999/xlink" x="0px" y="0px"
	 width="100px" height="100px" viewBox="0 0 100 100" enable-background="new 0 0 100 100" xml:space="preserve">
<g>
	<rect fill="#E03A45" width="100" height="100"/>
</g>
<path fill="#2A2A2A" d="M69.1,18.2l2.6,0.1l-2-2.8l1.2-3.3l-3.2,1.1L65,11.2v3.5l-3,2l3.2,1.1l1,3.3l1.4-2c1.2,0.9,1.8,2,1.5,5.1
	c-0.3,3.6-4.2,5.2-8,6.7c-1.6,0.7-3.2,1.3-4.4,2.1c-3,1.8-4.8,5.3-5.7,7.5l-1.6-0.9c-0.8-0.5-1.9-0.2-2.4,0.7
	c-0.2,0.4-0.3,0.8-0.2,1.1c-2.3-0.7-4.7-1-7.2-1C25.5,40.1,14,51.6,14,65.8s11.5,25.6,25.6,25.6c14.1,0,25.6-11.5,25.6-25.6
	c0-8.5-4.1-16-10.4-20.6c0.1-0.1,0.3-0.3,0.4-0.4c0.5-0.8,0.2-1.9-0.7-2.4l-2.1-1.2c0.8-1.9,2.5-5.3,5.2-6.9c1.1-0.7,2.6-1.3,4.2-2
	c4-1.6,8.5-3.5,8.9-8C71,20.9,70.2,19.3,69.1,18.2z"/>
</svg>
