<?xml version="1.0" encoding="utf-8"?>
<!-- Generator: Adobe Illustrator 16.0.0, SVG Export Plug-In . SVG Version: 6.00 Build 0)  -->
<!DOCTYPE svg PUBLIC "-//W3C//DTD SVG 1.1//EN" "http://www.w3.org/Graphics/SVG/1.1/DTD/svg11.dtd">
<svg version="1.1" id="Layer_1" xmlns="http://www.w3.org/2000/svg" xmlns:xlink="http://www.w3.org/1999/xlink" x="0px" y="0px"
	 width="100px" height="100px" viewBox="0 0 100 100" enable-background="new 0 0 100 100" xml:space="preserve">
<rect fill="#E03A45" width="100" height="100"/>
<g>
	<g>
		<rect x="9" y="49.1" fill="#2A2A2A" stroke="#E03A45" stroke-width="3.4375" stroke-miterlimit="10" width="27.5" height="27.5"/>
		
			<rect x="36.5" y="49.1" fill="#2A2A2A" stroke="#E03A45" stroke-width="3.4375" stroke-miterlimit="10" width="27.5" height="27.5"/>
		
			<rect x="36.5" y="21.6" fill="#2A2A2A" stroke="#E03A45" stroke-width="3.4375" stroke-miterlimit="10" width="27.5" height="27.5"/>
		
			<rect x="64" y="49.1" fill="#2A2A2A" stroke="#E03A45" stroke-width="3.4375" stroke-miterlimit="10" width="27.5" height="27.5"/>
	</g>
	<g>
		<g>
			<path fill="#FFFFFF" d="M80.3,62.3L75.7,67c-0.1,0.1-0.3,0.2-0.5,0.2c-0.4,0-0.7-0.3-0.7-0.7v-9.4c0-0.4,0.3-0.7,0.7-0.7
				c0.2,0,0.3,0.1,0.5,0.2l4.7,4.7c0.1,0.1,0.2,0.3,0.2,0.5C80.5,62,80.5,62.2,80.3,62.3z"/>
		</g>
		<g>
			<path fill="#FFFFFF" d="M19.6,61.8c0-0.2,0.1-0.3,0.2-0.5l4.7-4.7c0.1-0.1,0.3-0.2,0.5-0.2c0.4,0,0.7,0.3,0.7,0.7v9.4
				c0,0.4-0.3,0.7-0.7,0.7c-0.2,0-0.3-0.1-0.5-0.2l-4.7-4.7C19.7,62.2,19.6,62,19.6,61.8z"/>
		</g>
		<g>
			<path fill="#FFFFFF" d="M50,31.3c0.2,0,0.3,0.1,0.5,0.2l4.7,4.7c0.1,0.1,0.2,0.3,0.2,0.5c0,0.4-0.3,0.7-0.7,0.7h-9.4
				c-0.4,0-0.7-0.3-0.7-0.7c0-0.2,0.1-0.3,0.2-0.5l4.7-4.7C49.6,31.3,49.8,31.3,50,31.3z"/>
		</g>
		<g>
			<path fill="#FFFFFF" d="M50,68.5c-0.2,0-0.3-0.1-0.5-0.2l-4.7-4.7c-0.1-0.1-0.2-0.3-0.2-0.5c0-0.4,0.3-0.7,0.7-0.7h9.4
				c0.4,0,0.7,0.3,0.7,0.7c0,0.2-0.1,0.3-0.2,0.5l-4.7,4.7C50.3,68.5,50.1,68.5,50,68.5z"/>
		</g>
	</g>
</g>
<g>
	<polyline fill="#E03A45" points="94.6,78.6 89.9,78.6 89.9,30.1 69.6,30.1 69.6,76.8 64.9,78.6 	"/>
	<g>
		<path fill="#FFFFFF" d="M66.1,81.6h7.8V38.3c0-0.6,0.5-1.1,1.1-1.1h6.7c0.6,0,1.1,0.5,1.1,1.1v43.2h7.8c0.4,0,0.8,0.2,1,0.7
			c0.2,0.4,0.1,0.9-0.2,1.2L79.2,96.8c-0.2,0.2-0.5,0.3-0.8,0.3c-0.3,0-0.6-0.1-0.8-0.3L65.2,83.5c-0.3-0.3-0.3-0.8-0.2-1.2
			C65.2,81.9,65.6,81.6,66.1,81.6z"/>
	</g>
</g>
</svg>
