<?xml version="1.0" encoding="utf-8"?>
<!-- Generator: Adobe Illustrator 16.0.0, SVG Export Plug-In . SVG Version: 6.00 Build 0)  -->
<!DOCTYPE svg PUBLIC "-//W3C//DTD SVG 1.1//EN" "http://www.w3.org/Graphics/SVG/1.1/DTD/svg11.dtd">
<svg version="1.1" id="Layer_1" xmlns="http://www.w3.org/2000/svg" xmlns:xlink="http://www.w3.org/1999/xlink" x="0px" y="0px"
	 width="100px" height="100px" viewBox="0 0 100 100" enable-background="new 0 0 100 100" xml:space="preserve">
<g>
	<rect fill="#E03A45" width="100" height="100"/>
</g>
<g>
	<g>
		<g>
			<rect x="36.2" y="37.4" fill="#2A2A2A" width="37.6" height="35.2"/>
		</g>
		<g>
			<path fill="#2A2A2A" d="M73.4,56v-1.7c3.1,0,7.9-3.3,11.2-6.5c1.5-1.5,3.4-10.5,1.7-19.9c-1.2-6.5-4.4-15-13.2-19
				c-7.3-3.3-14.1-2.5-20.3,2.6c-4.6,3.8-7.1,8.7-7.2,8.8l-1.5-0.8c0.1-0.2,10.7-20.8,29.6-12.1c9.5,4.3,12.9,13.4,14.2,20.3
				c1.8,9.8-0.1,19.3-2.2,21.4C82.4,52.4,77.1,56,73.4,56z"/>
		</g>
		<g>
			<path fill="#2A2A2A" d="M72.1,64.3l-0.8-1.5c0,0,3.3-1.6,4.8-3.2c1-1.6,1.2-19.1,1.3-27.5c0-3.3,0.1-5.9,0.1-7.1
				c0.1-3.1-1.3-8-4-10.7c-1.2-1.2-2.4-1.8-3.6-1.8c-4.3,0-5.9,7.6-5.9,7.7l-1.6-0.3c0.1-0.4,1.9-9.1,7.5-9.1c1.7,0,3.3,0.8,4.8,2.3
				c3,3.1,4.6,8.5,4.4,12c-0.1,1.2-0.1,3.8-0.1,7.1c-0.2,20.6-0.7,27.6-1.8,28.7C75.6,62.5,72.2,64.2,72.1,64.3z"/>
		</g>
		<g>
			<g>
				<rect x="20.1" y="19.3" fill="#2A2A2A" width="12.8" height="73.9"/>
			</g>
			<g>
				<rect x="38.1" y="19.3" fill="#2A2A2A" width="12.8" height="73.9"/>
			</g>
			<g>
				<rect x="56.2" y="19.3" fill="#2A2A2A" width="12.8" height="73.9"/>
			</g>
		</g>
		<g>
			<rect x="16.3" y="24.9" fill="#E03A45" width="56.4" height="7.1"/>
		</g>
		<g>
			<rect x="16.3" y="79.7" fill="#E03A45" width="56.4" height="7.1"/>
		</g>
		<g>
			<rect x="16.3" y="26" fill="#2A2A2A" width="56.4" height="5"/>
		</g>
		<g>
			<rect x="16.3" y="80.7" fill="#2A2A2A" width="56.4" height="5"/>
		</g>
		<g>
			<path fill="#2A2A2A" d="M73.4,47.6v-1.7c12.2,0,16.8-8,17.6-12.7c0.7-4.3-0.9-9.7-4.4-14.4C83.2,14.2,75,6.2,58.2,3.9
				C34,0.7,27.4,19.4,27.2,20.2l-1.6-0.5c0.1-0.2,7.2-20.8,32.8-17.4C75.9,4.6,84.4,13,88,17.8c3.8,5.1,5.5,10.8,4.7,15.6
				C91.1,43.2,81.5,47.6,73.4,47.6z"/>
		</g>
	</g>
	<g>
		<rect x="38.3" y="40" fill="#FFFFFF" width="31.9" height="16.8"/>
	</g>
	<g>
		<rect x="46.7" y="60.2" fill="#FFFFFF" width="1.7" height="3.4"/>
	</g>
	<g>
		<rect x="53.4" y="60.2" fill="#FFFFFF" width="1.7" height="3.4"/>
	</g>
	<g>
		<rect x="60.1" y="60.2" fill="#FFFFFF" width="1.7" height="3.4"/>
	</g>
	<g>
		<path fill="#2A2A2A" d="M50.9,54.3h-8.4V42.5h8.4V54.3z M44.2,52.6h5v-8.4h-5V52.6z"/>
	</g>
	<g>
		<path fill="#2A2A2A" d="M64.3,54.3h-8.4V42.5h8.4V54.3z M57.6,52.6h5v-8.4h-5V52.6z"/>
	</g>
</g>
</svg>
