<?xml version="1.0" encoding="utf-8"?>
<!-- Generator: Adobe Illustrator 16.0.0, SVG Export Plug-In . SVG Version: 6.00 Build 0)  -->
<!DOCTYPE svg PUBLIC "-//W3C//DTD SVG 1.1//EN" "http://www.w3.org/Graphics/SVG/1.1/DTD/svg11.dtd">
<svg version="1.1" id="Layer_1" xmlns="http://www.w3.org/2000/svg" xmlns:xlink="http://www.w3.org/1999/xlink" x="0px" y="0px"
	 width="100px" height="100px" viewBox="0 0 100 100" enable-background="new 0 0 100 100" xml:space="preserve">
<rect fill="#E03A45" width="99.9" height="99.9"/>
<rect x="0.2" opacity="0.3" fill="#E03A45" width="100" height="100"/>
<g>
	<path fill="#2A2A2A" d="M50.1,77.6c0,0.6-0.6,1.1-1.4,1.1l0,0c-0.8,0-1.4-0.5-1.4-1.1v-3c0-0.6,0.6-1.1,1.4-1.1l0,0
		c0.8,0,1.4,0.5,1.4,1.1V77.6z"/>
	<path fill="#2A2A2A" d="M46.9,77.7c0,0.5-0.5,1-1.1,1l0,0c-0.6,0-1.1-0.4-1.1-1v-2.8c0-0.5,0.5-1,1.1-1l0,0c0.6,0,1.1,0.4,1.1,1
		V77.7z"/>
	<path fill="#2A2A2A" d="M44.3,77.4c0,0.4-0.4,0.8-0.8,0.8l0,0c-0.4,0-0.8-0.3-0.8-0.8v-2.2c0-0.4,0.4-0.8,0.8-0.8l0,0
		c0.4,0,0.8,0.3,0.8,0.8V77.4z"/>
	<path fill="#2A2A2A" d="M42.4,76.7c0,0.4-0.4,0.7-0.8,0.7l0,0c-0.4,0-0.8-0.3-0.8-0.7v-1.9c0-0.4,0.4-0.7,0.8-0.7l0,0
		c0.4,0,0.8,0.3,0.8,0.7V76.7z"/>
	<path fill="#2A2A2A" d="M40.4,76.2c-0.1,0.3-0.5,0.4-0.9,0.2l0,0c-0.4-0.1-0.7-0.4-0.6-0.7l0.4-1.3c0.1-0.3,0.5-0.4,0.9-0.2l0,0
		c0.4,0.1,0.7,0.4,0.6,0.7L40.4,76.2z"/>
	<path fill="#2A2A2A" d="M50.4,77.6c0,0.6,0.6,1.1,1.4,1.1l0,0c0.8,0,1.4-0.5,1.4-1.1v-3c0-0.6-0.6-1.1-1.4-1.1l0,0
		c-0.8,0-1.4,0.5-1.4,1.1V77.6z"/>
	<path fill="#2A2A2A" d="M53.6,77.7c0,0.5,0.5,1,1.1,1l0,0c0.6,0,1.1-0.4,1.1-1v-2.8c0-0.5-0.5-1-1.1-1l0,0c-0.6,0-1.1,0.4-1.1,1
		V77.7z"/>
	<path fill="#2A2A2A" d="M56.2,77.4c0,0.4,0.4,0.8,0.8,0.8l0,0c0.4,0,0.8-0.3,0.8-0.8v-2.2c0-0.4-0.4-0.8-0.8-0.8l0,0
		c-0.4,0-0.8,0.3-0.8,0.8V77.4z"/>
	<path fill="#2A2A2A" d="M58.1,76.7c0,0.4,0.4,0.7,0.8,0.7l0,0c0.4,0,0.8-0.3,0.8-0.7v-1.9c0-0.4-0.3-0.7-0.8-0.7l0,0
		c-0.4,0-0.8,0.3-0.8,0.7V76.7z"/>
	<path fill="#2A2A2A" d="M60,76.2c0.1,0.3,0.5,0.4,0.9,0.2l0,0c0.4-0.1,0.7-0.4,0.6-0.7l-0.4-1.3c-0.1-0.3-0.5-0.4-0.9-0.2l0,0
		c-0.4,0.1-0.7,0.4-0.6,0.7L60,76.2z"/>
	<path fill="#2A2A2A" d="M70.2,34.5c0,0,8.7-5.1,10-7.1c1.4-2.1,0.2-3.5,2.1-6.1c1.9-2.6,6.5-4.9,9.8-3c3.3,2,1.5,6.4,1.5,6.4
		s2.1,0.4,2.5,2.3c0.5,1.9-1.3,7.8-6.5,6.8c-5.2-1-3.5-1.4-3.5-1.4L73,40.6C73,40.6,72.6,38.2,70.2,34.5z"/>
	<path fill="#2A2A2A" d="M30.8,33.1c0,0-9.8-5.8-11.2-7.9c-1.4-2.1-0.2-3.5-2.1-6.1c-1.9-2.6-6.5-4.9-9.8-3c-3.3,2-1.5,6.4-1.5,6.4
		s-2.1,0.4-2.5,2.3c-0.5,1.9,1.3,7.8,6.5,6.8c5.2-1,3.5-1.4,3.5-1.4l14.5,9.1C28.1,39.3,27.5,36,30.8,33.1z"/>
	<path fill="#2A2A2A" d="M30.8,59.6c0,0,0.1,3.1-0.5,4.3c-0.6,1.2-1.7,3.1-2.1,3.6c-0.5,0.5-0.5,1.8-0.5,1.8s-7.8,4.6-8,5.2
		c-0.2,0.5-1.1,2.6-1.1,3.7c-0.1,1.1-1.4,5.9-5.4,6.5c-4,0.6-7.8-0.6-7.1-6c0,0-0.8-0.5-1.7-1.8c-0.9-1.3-0.6-4.7,0.9-5.9
		c1.5-1.1,4.8-3.9,7.8-1C13.1,70,29.4,60.1,30.8,59.6z"/>
	<path fill="#2A2A2A" d="M69.4,58c0,0-0.2,3.1,0,4.4c0.3,2.9,3.1,5.3,3.1,5.3s7.8,4.6,8,5.2c0.2,0.5,1.1,2.6,1.1,3.7
		c0.1,1.1,1.4,5.9,5.4,6.5c4,0.6,7.8-0.6,7.1-6c0,0,0.8-0.5,1.7-1.8c0.9-1.3,0.6-4.7-0.9-5.9c-1.5-1.1-4.8-3.9-7.8-1
		C87.1,68.4,70.8,58.5,69.4,58z"/>
	<path fill="#2A2A2A" d="M66.3,60.3c2.7-3.5,4.3-7.8,4.3-12.5c0-11.3-9.2-20.4-20.4-20.4c-11.3,0-20.4,9.2-20.4,20.4
		c0,4.7,1.6,9,4.3,12.5c-0.1,1.4-0.4,3.6-1.3,4.7c-1.5,1.7-2.7,4.2-0.7,5.4c2.1,1.1,8.6,0.7,8.9,0.8l-0.7,2.5c0,0,0.5-0.3,0.9,0
		c0,0,1.4-0.9,1.5,0.7c0,0,0.9-1.5,1.8,0c0,0,1.4-2.2,2.7-0.3c0,0,1.5-2.7,3.1-0.4c1.5-2.3,3.1,0.4,3.1,0.4c1.3-1.9,2.7,0.3,2.7,0.3
		c0.9-1.5,1.8,0,1.8,0c0.1-1.5,1.5-0.7,1.5-0.7c0.5-0.3,0.9,0,0.9,0l-0.7-2.5c0.3-0.1,6.8,0.3,8.9-0.8c2.1-1.1,0.8-3.7-0.7-5.4
		C66.7,63.8,66.4,61.7,66.3,60.3z M39.7,65.2c-3.2-1.4-2.5-6.4-2.1-7.2c0.4-0.8,2.2-2.5,4.8-2.3c2.6,0.2,5.6,0.7,6,2.9
		c0,0,0.2,1.3-0.6,2.7C47,62.7,42.9,66.6,39.7,65.2z M49.6,66.4c0,0-1.5,2.1-1.9,2.2c-0.4,0.1-0.3-1.3,0-2.5
		c0.3-1.2,0.5-1.7,0.5-2.2c0-0.5,0.1-2,0.5-1.7c0.5,0.3,1.3,1.6,1.2,2.5C49.9,65.8,49.8,66.1,49.6,66.4z M52.9,68.6
		c-0.4-0.1-1.9-2.2-1.9-2.2c-0.2-0.3-0.3-0.6-0.4-1.6c-0.1-1,0.7-2.2,1.2-2.5c0.5-0.3,0.5,1.2,0.5,1.7c0,0.5,0.2,1,0.5,2.2
		C53.1,67.3,53.3,68.7,52.9,68.6z M60.8,65.2c-3.2,1.4-7.2-2.5-8-3.9s-0.6-2.7-0.6-2.7c0.4-2.2,3.4-2.7,6-2.9
		c2.6-0.2,4.4,1.5,4.8,2.3C63.3,58.8,64,63.8,60.8,65.2z"/>
</g>
</svg>
