<?xml version="1.0" encoding="utf-8"?>
<!-- Generator: Adobe Illustrator 16.0.0, SVG Export Plug-In . SVG Version: 6.00 Build 0)  -->
<!DOCTYPE svg PUBLIC "-//W3C//DTD SVG 1.1//EN" "http://www.w3.org/Graphics/SVG/1.1/DTD/svg11.dtd">
<svg version="1.1" id="Layer_1" xmlns="http://www.w3.org/2000/svg" xmlns:xlink="http://www.w3.org/1999/xlink" x="0px" y="0px"
	 width="100px" height="100px" viewBox="0 0 100 100" enable-background="new 0 0 100 100" xml:space="preserve">
<rect fill="#E03A45" width="100" height="100"/>
<path fill="#2A2A2A" d="M64.8,43.9c0,8.1-6.6,16.2-14.7,16.2c-8.1,0-14.7-8.1-14.7-16.2S42,29.2,50.1,29.2
	C58.2,29.2,64.8,35.8,64.8,43.9z"/>
<path fill="#2A2A2A" d="M80.3,87.3c0-16.7-13.5-30.2-30.2-30.2C33.4,57.1,20,70.6,20,87.3L19.6,100h61.1L80.3,87.3z"/>
<polygon fill="#FFFFFF" points="73.9,28.7 68.4,23.2 49.9,41.6 31.5,23.2 26,28.7 44.4,47.1 26,65.6 31.5,71.1 49.9,52.6 68.4,71.1 
	73.9,65.6 55.5,47.1 "/>
</svg>
