<?xml version="1.0" encoding="iso-8859-1"?>
<!-- Generator: Adobe Illustrator 18.1.1, SVG Export Plug-In . SVG Version: 6.00 Build 0)  -->
<!DOCTYPE svg PUBLIC "-//W3C//DTD SVG 1.1//EN" "http://www.w3.org/Graphics/SVG/1.1/DTD/svg11.dtd">
<svg version="1.1" id="Layer_1" xmlns="http://www.w3.org/2000/svg" xmlns:xlink="http://www.w3.org/1999/xlink" x="0px" y="0px"
	 viewBox="-247 370.89 100 100" style="enable-background:new -247 370.89 100 100;" xml:space="preserve">
<rect x="-246" y="371.89" style="fill:#E03A45;" width="99.9" height="99.9"/>
<path style="fill:#2A2A2A;" d="M-224.1,472.39l0.3-9.6c0-15.3,12.5-28,27.8-28c7.3,0,13.9,2.7,18.8,7.3c2.1-2.4,3.8-4.2,5.8-6.9
	c-3.4-3-7.5-5.6-11.7-7.2c4.4-4,7.3-10,7.3-16.4c0-11.1-9.1-20.2-20.2-20.2s-20.2,9.1-20.2,20.2c0,6.4,2.9,12.4,7.3,16.4
	c-13.9,5.2-23.6,19.1-23.6,34.7l-0.1,9.7H-224.1z M-196.1,400.19c6.2,0,11.2,5,11.2,11.2c0,6.6-5.4,12.9-11.2,12.9
	c-5.8,0-11.2-6.2-11.2-12.9C-207.3,405.29-202.3,400.19-196.1,400.19z"/>
<polygon style="fill:#E03A45;" points="-157.4,414.09 -201.3,457.99 -201.3,471.89 -145.8,471.89 "/>
<path style="fill:#FFFFFF;" d="M-153.917,469.113h-36.167c-2.063,0-3.75-1.688-3.75-3.75l0,0c0-2.063,1.688-3.75,3.75-3.75h36.167
	c2.063,0,3.75,1.688,3.75,3.75l0,0C-150.167,467.426-151.854,469.113-153.917,469.113z"/>
<g>
	<path style="fill:#FFFFFF;" d="M-154.75,436.261v19.185c0,2.063-1.687,3.75-3.75,3.75h0c-2.063,0-3.75-1.688-3.75-3.75v-19.185
		c0-2.063,1.688-3.75,3.75-3.75h0C-156.437,432.511-154.75,434.199-154.75,436.261z"/>
	<path style="fill:#FFFFFF;" d="M-167.75,443.53v11.917c0,2.063-1.687,3.75-3.75,3.75h0c-2.063,0-3.75-1.688-3.75-3.75V443.53
		c0-2.063,1.688-3.75,3.75-3.75h0C-169.438,439.78-167.75,441.467-167.75,443.53z"/>
	<path style="fill:#FFFFFF;" d="M-181.75,449.697v5.75c0,2.063-1.688,3.75-3.75,3.75h0c-2.063,0-3.75-1.688-3.75-3.75v-5.75
		c0-2.063,1.688-3.75,3.75-3.75h0C-183.438,445.947-181.75,447.634-181.75,449.697z"/>
</g>
</svg>
